<mxfile host="app.diagrams.net" modified="2024-01-04T07:03:39.973Z" agent="Mozilla/5.0 (Windows NT 10.0; Win64; x64) AppleWebKit/537.36 (KHTML, like Gecko) Chrome/120.0.0.0 Safari/537.36 Edg/120.0.0.0" etag="6KnIoGHnsbN_SxL7qwAK" version="22.1.16" type="github">
  <diagram name="第 1 页" id="DxylzfDZrgo188qfIz2o">
    <mxGraphModel dx="1823" dy="891" grid="1" gridSize="10" guides="1" tooltips="1" connect="1" arrows="1" fold="1" page="1" pageScale="1" pageWidth="827" pageHeight="1169" math="0" shadow="0">
      <root>
        <mxCell id="0" />
        <mxCell id="1" parent="0" />
        <mxCell id="KZs2u-2fTuZ561ybV9q9-4" value="1400：WaitOcclusionTests" style="rounded=1;whiteSpace=wrap;html=1;" vertex="1" parent="1">
          <mxGeometry x="200" y="190" width="160" height="40" as="geometry" />
        </mxCell>
      </root>
    </mxGraphModel>
  </diagram>
</mxfile>
